<?xml version="1.0" standalone="no"?>
<!DOCTYPE svg PUBLIC "-//W3C//DTD SVG 20010904//EN"
 "http://www.w3.org/TR/2001/REC-SVG-20010904/DTD/svg10.dtd">
<svg version="1.0" xmlns="http://www.w3.org/2000/svg"
 width="18.5" height="18.5" viewBox="0 0 32.000000 32.000000"
 preserveAspectRatio="xMidYMid meet">

<g transform="translate(0.000000,32.000000) scale(0.100000,-0.100000)"
fill="#ffff" stroke="none">
<path d="M159 253 c-56 -33 -52 -30 -46 -48 6 -13 10 -13 41 2 l35 16 45 -41
c60 -55 86 -50 86 17 0 47 0 48 -30 43 -19 -3 -38 2 -48 10 -31 27 -38 27 -83
1z"/>
<path d="M70 256 c-16 -9 -32 -11 -47 -5 -22 8 -23 7 -23 -46 0 -51 11 -77 25
-55 13 20 42 9 83 -33 23 -23 42 -49 42 -56 0 -7 6 -11 13 -8 6 2 11 9 10 15
-2 6 3 9 10 7 6 -3 27 7 45 23 l32 28 -39 38 c-38 37 -41 38 -71 26 -26 -11
-34 -11 -46 2 -19 19 -11 39 24 61 l27 16 -30 0 c-16 0 -41 -6 -55 -13z"/>
<path d="M34 136 c-7 -18 66 -95 84 -89 20 7 14 21 -25 63 -39 43 -51 48 -59
26z"/>
</g>
</svg>
