<?xml version="1.0" standalone="no"?>
<!DOCTYPE svg PUBLIC "-//W3C//DTD SVG 20010904//EN"
 "http://www.w3.org/TR/2001/REC-SVG-20010904/DTD/svg10.dtd">
<svg version="1.0" xmlns="http://www.w3.org/2000/svg"
 width="19" height="19" viewBox="0 0 24.000000 24.000000"
 preserveAspectRatio="xMidYMid meet">

<g transform="translate(0.000000,24.000000) scale(0.100000,-0.100000)"
fill="#c9c9c9" stroke="none">
<path d="M16 222 c-3 -5 0 -27 6 -50 9 -37 14 -42 39 -42 16 0 29 -4 29 -10 0
-5 -13 -10 -29 -10 -25 0 -30 -5 -39 -42 -6 -24 -7 -47 -3 -51 10 -10 211 89
211 103 0 8 -189 110 -204 110 -3 0 -7 -4 -10 -8z"/>
</g>
</svg>
